<svg width="21" height="18" viewBox="0 0 21 18" fill="none" xmlns="http://www.w3.org/2000/svg">
<path fill-rule="evenodd" clip-rule="evenodd" d="M1 6.73518C1 3.5712 3.55491 1 6.71429 1C8.0007 1 9.18837 1.42737 10.1429 2.14672C11.0973 1.42737 12.285 1 13.5714 1C16.7308 1 19.2857 3.5712 19.2857 6.73518C19.2857 7.91683 18.7068 9.06518 18.0672 10.0008C17.4135 10.9572 16.6114 11.8121 16.003 12.4231L12.3665 16.0753C11.1388 17.3082 9.14688 17.3082 7.91922 16.0753L4.28267 12.4231C3.66414 11.8019 2.86168 10.9467 2.21029 9.99242C1.57227 9.05775 1 7.91536 1 6.73518Z" fill="white"/>
</svg>
